<?xml version="1.0" encoding="utf-8"?>
<!-- Generator: Adobe Illustrator 15.0.0, SVG Export Plug-In  -->
<!DOCTYPE svg PUBLIC "-//W3C//DTD SVG 1.1//EN" "http://www.w3.org/Graphics/SVG/1.1/DTD/svg11.dtd" [
	<!ENTITY ns_flows "http://ns.adobe.com/Flows/1.0/">
]>
<svg version="1.1"
	 xmlns="http://www.w3.org/2000/svg" xmlns:xlink="http://www.w3.org/1999/xlink" xmlns:a="http://ns.adobe.com/AdobeSVGViewerExtensions/3.0/"
	 x="0px" y="0px" width="95px" height="150px" viewBox="-0.4 -0.5 95 150" enable-background="new -0.4 -0.5 95 150"
	 xml:space="preserve">
<defs>
</defs>
<path fill="#FC468F" d="M44.5,10.7c11.3-0.8,21.7,3.4,27.5,9.2c1.6,1.6,3.2,2.9,4.6,4.8c8,10.4,10.2,23.8,5.5,36.2
	c-3,7.9-10,15.7-17.3,19.4c-16.3,8.5-35.2,4-46.4-9.9C8.9,58.4,7.9,41.2,16,28.1c2.3-3.7,5.5-7.1,8.7-9.7C30,14,37.1,11.2,44.5,10.7
	L44.5,10.7L44.5,10.7z M0,47.8c0,21.7,15.8,41.8,37.2,46.1c3.8,0.8,5,0.3,5.1,1.7l0,20.6l-16,0c-3.1,0-5.1-0.2-5.1,3.3
	c0,4.1-0.7,6.9,2.9,7.2c4,0.3,15.6-0.5,18.2,0.2c-0.1,4,0,8.1,0,12.1c0,3.8-1.2,8.9,3.2,8.9c4.4,0,7,0.7,7.3-2.7
	c0.1-1.6,0-16.3,0-18.2c2.1-0.5,11.2-0.2,14.1-0.2c7.3,0,7.1,0.5,7.1-6.9c0-2-0.4-3.3-2.4-3.6c-2.8-0.4-15.7,0.3-18.7-0.2
	c0-3.6,0-7.1,0-10.7c0-14.7-1.9-9.1,9.4-12.7c3.1-1,5.2-1.9,7.8-3.3c9-4.7,17.3-13.8,21.2-23.2c13-31-9-66-43.6-66.2
	C21.7-0.2,0,21.1,0,47.8L0,47.8L0,47.8z"/>
</svg>
