<?xml version="1.0" encoding="utf-8"?>
<!-- Generator: Adobe Illustrator 15.0.0, SVG Export Plug-In  -->
<!DOCTYPE svg PUBLIC "-//W3C//DTD SVG 1.1//EN" "http://www.w3.org/Graphics/SVG/1.1/DTD/svg11.dtd" [
	<!ENTITY ns_flows "http://ns.adobe.com/Flows/1.0/">
]>
<svg version="1.1"
	 xmlns="http://www.w3.org/2000/svg" xmlns:xlink="http://www.w3.org/1999/xlink" xmlns:a="http://ns.adobe.com/AdobeSVGViewerExtensions/3.0/"
	 x="0px" y="0px" width="48px" height="48px" viewBox="0 0 48 48" enable-background="new 0 0 48 48" xml:space="preserve">
<defs>
</defs>
<path fill="#4BAAD2" d="M31.9,31.6c-0.4,3-1.3,5.2-3.2,7.3c-0.4,0.5-1.2,1.4-1.7,1.8c-1.3,1.1-2.4,1.8-4.4,2.5
	c-3.6,1.3-8.2,0.9-11.4-1c-1.5-0.9-2.9-2-3.8-3.2c-2.5-3-3.8-6.6-3.2-10.7c0.4-3.2,1.8-6.1,4-8.2c1-0.9,1.5-1.5,2.9-2.3
	c0.8-0.5,1.4-0.8,2.4-1.1c3.6-1.3,8.2-0.9,11.4,1c1.3,0.8,2.9,2,3.8,3.2c1,1.2,1.9,2.5,2.6,4.4C31.8,27.2,32.2,29.6,31.9,31.6
	L31.9,31.6z M16,12.1c-4.8,0.5-8.3,2.7-11.4,5.9c-1.2,1.2-2.5,3.4-3.3,5.4c-1.9,4.6-1.6,9.9,0.5,14.3c0.7,1.5,1.5,2.7,2.5,3.9
	c1,1.2,2.2,2.2,3.4,3.1c0.8,0.6,1.8,1,2.7,1.5c4.2,2.2,9.9,2.1,14.2,0.4c2.7-1,5.8-3.3,7.4-5.5c2-2.7,3.3-5.4,3.8-9.1
	c0.6-5.5-1.2-10-3.8-13.2c0.3-0.6,2.3-2.4,3-3c1-1,1.9-2,3-3c0.8-0.8,5.6-5.7,6-5.9c0,2.4,0,4.9,0,7.3c0,1.7,0.1,1.8,1.8,1.8
	c1.4,0,2.2,0.2,2.2-1.4l0-10.9c0-1.4,0.2-2.2-0.6-3C46.6-0.2,45.5,0,44.2,0L33.4,0C31.8,0,32,0.8,32,2.3C32,4,32.3,4,33.9,4
	c2.2,0,5-0.1,7.2,0L29.2,15.9c-0.4-0.2-0.9-0.7-1.3-0.9C24.3,12.7,20.4,11.7,16,12.1L16,12.1z"/>
</svg>
